<svg xmlns="http://www.w3.org/2000/svg" xmlns:svg="http://www.w3.org/2000/svg" id="svg7384" width="41" height="41" version="1.1"><metadata id="metadata90"/><path id="path3797" fill="#c83b3b" fill-opacity="1" fill-rule="nonzero" stroke="none" d="m 34,17.5 a 16.5,16.5 0 1 1 -33,0 16.5,16.5 0 1 1 33,0 z" opacity=".85" transform="matrix(-1,0,0,1,38,3.0000001)"/><g id="g27277-1-1" fill="#fff" fill-opacity="1" stroke="none" display="inline" transform="matrix(0.88893521,0,0,0.88925773,-47.268944,-668.7581)"><path id="path27279-0-5" fill="#fff" fill-opacity="1" fill-rule="nonzero" stroke="none" stroke-width="1.781" d="m 71.177839,770.03365 1.26506,0 c 0.01312,-1.5e-4 0.0263,-5.8e-4 0.03953,0 0.322528,0.0142 0.645016,0.16266 0.869729,0.39533 l 2.88592,2.88592 2.925453,-2.88592 c 0.336032,-0.2916 0.565067,-0.38648 0.869729,-0.39533 l 1.265061,0 0,1.26506 c 0,0.3624 -0.04344,0.6966 -0.316265,0.94879 l -2.88592,2.88592 2.846387,2.84639 c 0.238069,0.23805 0.355788,0.57364 0.355798,0.90926 l 0,1.26506 -1.265061,0 c -0.335622,-10e-6 -0.671223,-0.11777 -0.909262,-0.35579 l -2.88592,-2.88592 -2.88592,2.88592 c -0.238039,0.23807 -0.573655,0.35579 -0.909263,0.35579 l -1.26506,0 0,-1.26506 c -4e-6,-0.3356 0.117726,-0.67121 0.355798,-0.90926 l 2.88592,-2.84639 -2.88592,-2.88592 c -0.266601,-0.24621 -0.383516,-0.59363 -0.355798,-0.94879 l 0,-1.26506 z" color="#bebebe" direction="ltr" display="inline" enable-background="new" font-family="Andale Mono" font-size="medium" font-stretch="normal" font-style="normal" font-variant="normal" font-weight="normal" letter-spacing="normal" overflow="visible" text-anchor="start" text-decoration="none" visibility="visible" word-spacing="normal" writing-mode="lr-tb" style="text-indent:0;text-align:start;line-height:normal;text-transform:none;block-progression:tb;marker:none;-inkscape-font-specification:Andale Mono"/></g><path id="path3780" fill="#fff" fill-opacity="1" fill-rule="nonzero" stroke="none" d="M 20.5 4 C 11.387302 4 4 11.387302 4 20.5 C 4 29.612698 11.387302 37 20.5 37 C 29.612698 37 37 29.612698 37 20.5 C 37 11.387302 29.612698 4 20.5 4 z M 20.5 5 C 29.060414 5 36 11.939586 36 20.5 C 36 29.060414 29.060414 36 20.5 36 C 11.939586 36 5 29.060414 5 20.5 C 5 11.939586 11.939586 5 20.5 5 z" opacity=".3"/></svg>