<svg xmlns="http://www.w3.org/2000/svg" xmlns:svg="http://www.w3.org/2000/svg" xmlns:xlink="http://www.w3.org/1999/xlink" id="svg4352" width="28" height="18" version="1.1"><defs id="defs4354"><linearGradient id="linearGradient3921-5-9"><stop id="stop3923-6-1" offset="0" stop-color="#bebebe" stop-opacity="1"/><stop id="stop3925-4-6" offset="1" stop-color="#fff" stop-opacity="1"/></linearGradient><linearGradient id="linearGradient3861" x1="21" x2="21" y1="18" y2="-8" gradientUnits="userSpaceOnUse" xlink:href="#linearGradient3921-5-9"/><linearGradient id="linearGradient4092" x1="15.88" x2="15.88" y1="-.955" y2="33.686" gradientTransform="matrix(0.86666667,0,0,0.88888867,-28.477373,46.294255)" gradientUnits="userSpaceOnUse" spreadMethod="reflect" xlink:href="#linearGradient3921-5-9"/><linearGradient id="linearGradient3858" x1="21" x2="21" y1="18" y2="-8" gradientUnits="userSpaceOnUse" xlink:href="#linearGradient3921-5-9"/></defs><metadata id="metadata4357"/><g id="layer1" transform="translate(-1.4773757,-45.294264)"><rect id="rect3075" width="26" height="16" x="-28.477" y="46.294" fill="url(#linearGradient4092)" fill-opacity="1" stroke="none" opacity="1" rx="8" ry="8" transform="scale(-1,1)"/><path id="path4388" fill="#000" fill-opacity="1" stroke="none" d="m 30,9 c 0,4.970563 -4.029437,9 -9,9 -4.970563,0 -9,-4.029437 -9,-9 0,-4.9705627 4.029437,-9 9,-9 4.970563,0 9,4.0294373 9,9 z" opacity=".2" transform="matrix(-0.99999997,0,0,0.99999997,31.477375,45.294262)"/><path id="path3853" fill="url(#linearGradient3861)" fill-opacity="1" stroke="none" d="m 30,9 c 0,4.970563 -4.029437,9 -9,9 -4.970563,0 -9,-4.029437 -9,-9 0,-4.9705627 4.029437,-9 9,-9 4.970563,0 9,4.0294373 9,9 z" transform="matrix(-0.88888886,0,0,0.88888886,29.144042,46.294262)"/><path id="rect3806" fill="#000" fill-opacity="1" stroke="none" d="m 10.477377,45.294262 c -4.9860006,0 -9.0000006,4.014 -9.0000006,9 0,4.986 4.014,9 9.0000006,9 l 10,0 c 4.986,0 9,-4.014 9,-9 0,-4.986 -4.014,-9 -9,-9 l -10,0 z m 0,1 10,0 c 4.432,0 8,3.568 8,8 0,4.432 -3.568,8 -8,8 l -10,0 c -4.4320006,0 -8.0000006,-3.568 -8.0000006,-8 0,-4.432 3.568,-8 8.0000006,-8 z" opacity=".2"/><path id="path3852" fill="#000" fill-opacity="1" stroke="none" d="m 30,9 c 0,4.970563 -4.029437,9 -9,9 -4.970563,0 -9,-4.029437 -9,-9 0,-4.9705627 4.029437,-9 9,-9 4.970563,0 9,4.0294373 9,9 z" opacity=".3" transform="matrix(-0.33333333,0,0,-0.33333333,17.477376,57.294262)"/><path id="path3841" fill="url(#linearGradient3858)" fill-opacity="1" stroke="none" d="m 30,9 c 0,4.970563 -4.029437,9 -9,9 -4.970563,0 -9,-4.029437 -9,-9 0,-4.9705627 4.029437,-9 9,-9 4.970563,0 9,4.0294373 9,9 z" transform="matrix(-0.22222222,0,0,-0.22222222,15.144043,56.294262)"/></g></svg>