<svg xmlns="http://www.w3.org/2000/svg" xmlns:svg="http://www.w3.org/2000/svg" id="svg11300" width="16" height="16" display="inline" enable-background="new" version="1.0"><metadata id="metadata4"/><g id="layer1" display="inline" transform="translate(0,-284)"><path id="rect2999" fill="#fff" fill-opacity="1" stroke="none" d="M 2 0 C 0.892 0 3.0947467e-18 0.892 0 2 L 0 14 C 0 15.108 0.892 16 2 16 L 14 16 C 15.108 16 16 15.108 16 14 L 16 2 C 16 0.892 15.108 3.0947467e-18 14 0 L 2 0 z M 3 1 L 13 1 C 14.108 1 15 1.892 15 3 L 15 13 C 15 14.108 14.108 15 13 15 L 3 15 C 1.892 15 1 14.108 1 13 L 1 3 C 1 1.892 1.892 1 3 1 z" opacity=".1" transform="translate(0,284)"/><rect id="rect3769" width="14" height="14" x="1" y="285" fill="#1a1a1a" fill-opacity="1" stroke="none" opacity=".85" rx="2" ry="2"/></g></svg>